<svg width="14" height="14" viewBox="0 0 14 14" fill="none" xmlns="http://www.w3.org/2000/svg">
<g clip-path="url(#clip0_154_29)">
<path fill-rule="evenodd" clip-rule="evenodd" d="M8.1 5.95L6.95 5.65L5.9 5.95L5.6 7.05L5.9 8.1L7 8.4L8.1 8.1L8.4 7L8.1 5.95ZM10.45 3.7L12.349 4.15C12.783 4.15 13.183 4.3 13.549 4.6C13.85 4.933 14 5.3 14 5.7V8.3C13.967 8.734 13.8 9.116 13.5 9.45C13.167 9.75 12.783 9.9 12.35 9.9L10.451 10.4L9.9 12.45C9.9 12.849 9.75 13.217 9.45 13.55C9.15 13.85 8.783 14 8.35 14H5.7C5.3 14 4.933 13.85 4.6 13.55C4.267 13.217 4.117 12.85 4.15 12.45L3.6 10.45L1.65 10C1.20336 9.94301 0.784734 9.75114 0.45 9.45C0.15 9.15 0 8.783 0 8.35V6.15V5.7C0 5.3 0.183 4.933 0.55 4.6C0.817 4.3 1.183 4.15 1.65 4.15L3.6 3.6L4.1 1.65C4.1 1.45 4.117 1.267 4.15 1.1C4.21158 0.873918 4.35389 0.678245 4.55 0.55C4.85 0.183 5.233 0 5.7 0H7.9C8 0 8.134 0.017 8.3 0.05C8.734 0.05 9.116 0.217 9.45 0.55C9.616 0.683 9.733 0.867 9.8 1.1C9.833 1.267 9.866 1.45 9.9 1.65L10.45 3.7Z" fill="#20320F"/>
</g>
<defs>
<clipPath id="clip0_154_29">
<rect width="14" height="14" fill="white"/>
</clipPath>
</defs>
</svg>
